<mxfile host="app.diagrams.net" agent="Mozilla/5.0 (Windows NT 10.0; Win64; x64) AppleWebKit/537.36 (KHTML, like Gecko) Chrome/129.0.0.0 Safari/537.36 Edg/129.0.0.0" version="24.7.17">
  <diagram name="Page-1" id="s_CmlT2ljx63GRdVbJf7">
    <mxGraphModel dx="1042" dy="1830" grid="1" gridSize="10" guides="1" tooltips="1" connect="1" arrows="1" fold="1" page="1" pageScale="1" pageWidth="827" pageHeight="1169" background="#00FFFF" math="0" shadow="1">
      <root>
        <mxCell id="0" />
        <mxCell id="1" parent="0" />
        <mxCell id="Ntl6VfkrKiZV54SrpeyR-69" value="Restaurant Business" style="shape=table;startSize=30;container=1;collapsible=0;childLayout=tableLayout;fixedRows=1;rowLines=0;fontStyle=0;strokeColor=#909090;fontSize=16;rounded=0;labelBackgroundColor=none;fillColor=#F5AB50;fontColor=#1A1A1A;" vertex="1" parent="1">
          <mxGeometry x="130" y="-952" width="290" height="735" as="geometry" />
        </mxCell>
        <mxCell id="Ntl6VfkrKiZV54SrpeyR-70" value="" style="shape=tableRow;horizontal=0;startSize=0;swimlaneHead=0;swimlaneBody=0;top=0;left=0;bottom=0;right=0;collapsible=0;dropTarget=0;fillColor=none;points=[[0,0.5],[1,0.5]];portConstraint=eastwest;strokeColor=#909090;fontSize=16;rounded=0;labelBackgroundColor=none;fontColor=#1A1A1A;" vertex="1" parent="Ntl6VfkrKiZV54SrpeyR-69">
          <mxGeometry y="30" width="290" height="30" as="geometry" />
        </mxCell>
        <mxCell id="Ntl6VfkrKiZV54SrpeyR-71" value="1" style="shape=partialRectangle;html=1;whiteSpace=wrap;connectable=0;fillColor=none;top=0;left=0;bottom=0;right=0;overflow=hidden;pointerEvents=1;strokeColor=#909090;fontSize=16;rounded=0;labelBackgroundColor=none;fontColor=#1A1A1A;" vertex="1" parent="Ntl6VfkrKiZV54SrpeyR-70">
          <mxGeometry width="40" height="30" as="geometry">
            <mxRectangle width="40" height="30" as="alternateBounds" />
          </mxGeometry>
        </mxCell>
        <mxCell id="Ntl6VfkrKiZV54SrpeyR-72" value="Inventory" style="shape=partialRectangle;html=1;whiteSpace=wrap;connectable=0;fillColor=none;top=0;left=0;bottom=0;right=0;align=left;spacingLeft=6;overflow=hidden;strokeColor=#909090;fontSize=16;rounded=0;labelBackgroundColor=none;fontColor=#1A1A1A;" vertex="1" parent="Ntl6VfkrKiZV54SrpeyR-70">
          <mxGeometry x="40" width="250" height="30" as="geometry">
            <mxRectangle width="250" height="30" as="alternateBounds" />
          </mxGeometry>
        </mxCell>
        <mxCell id="Ntl6VfkrKiZV54SrpeyR-193" value="" style="shape=tableRow;horizontal=0;startSize=0;swimlaneHead=0;swimlaneBody=0;strokeColor=inherit;top=0;left=0;bottom=0;right=0;collapsible=0;dropTarget=0;fillColor=none;points=[[0,0.5],[1,0.5]];portConstraint=eastwest;fontSize=16;" vertex="1" parent="Ntl6VfkrKiZV54SrpeyR-69">
          <mxGeometry y="60" width="290" height="15" as="geometry" />
        </mxCell>
        <mxCell id="Ntl6VfkrKiZV54SrpeyR-194" value="Item 1" style="shape=partialRectangle;html=1;whiteSpace=wrap;connectable=0;strokeColor=inherit;overflow=hidden;fillColor=none;top=0;left=0;bottom=0;right=0;pointerEvents=1;fontSize=12;align=left;spacingLeft=5;" vertex="1" parent="Ntl6VfkrKiZV54SrpeyR-193">
          <mxGeometry width="40" height="15" as="geometry">
            <mxRectangle width="40" height="15" as="alternateBounds" />
          </mxGeometry>
        </mxCell>
        <mxCell id="Ntl6VfkrKiZV54SrpeyR-204" value="Item Stocks" style="shape=partialRectangle;html=1;whiteSpace=wrap;connectable=0;strokeColor=inherit;overflow=hidden;fillColor=none;top=0;left=0;bottom=0;right=0;pointerEvents=1;fontSize=12;align=left;spacingLeft=5;" vertex="1" parent="Ntl6VfkrKiZV54SrpeyR-193">
          <mxGeometry x="40" width="250" height="15" as="geometry">
            <mxRectangle width="250" height="15" as="alternateBounds" />
          </mxGeometry>
        </mxCell>
        <mxCell id="Ntl6VfkrKiZV54SrpeyR-195" value="" style="shape=tableRow;horizontal=0;startSize=0;swimlaneHead=0;swimlaneBody=0;strokeColor=inherit;top=0;left=0;bottom=0;right=0;collapsible=0;dropTarget=0;fillColor=none;points=[[0,0.5],[1,0.5]];portConstraint=eastwest;fontSize=16;" vertex="1" parent="Ntl6VfkrKiZV54SrpeyR-69">
          <mxGeometry y="75" width="290" height="20" as="geometry" />
        </mxCell>
        <mxCell id="Ntl6VfkrKiZV54SrpeyR-196" value="Item 2" style="shape=partialRectangle;html=1;whiteSpace=wrap;connectable=0;strokeColor=inherit;overflow=hidden;fillColor=none;top=0;left=0;bottom=0;right=0;pointerEvents=1;fontSize=12;align=left;spacingLeft=5;" vertex="1" parent="Ntl6VfkrKiZV54SrpeyR-195">
          <mxGeometry width="40" height="20" as="geometry">
            <mxRectangle width="40" height="20" as="alternateBounds" />
          </mxGeometry>
        </mxCell>
        <mxCell id="Ntl6VfkrKiZV54SrpeyR-203" value="Furniture" style="shape=partialRectangle;html=1;whiteSpace=wrap;connectable=0;strokeColor=inherit;overflow=hidden;fillColor=none;top=0;left=0;bottom=0;right=0;pointerEvents=1;fontSize=12;align=left;spacingLeft=5;" vertex="1" parent="Ntl6VfkrKiZV54SrpeyR-195">
          <mxGeometry x="40" width="250" height="20" as="geometry">
            <mxRectangle width="250" height="20" as="alternateBounds" />
          </mxGeometry>
        </mxCell>
        <mxCell id="Ntl6VfkrKiZV54SrpeyR-197" value="" style="shape=tableRow;horizontal=0;startSize=0;swimlaneHead=0;swimlaneBody=0;strokeColor=inherit;top=0;left=0;bottom=0;right=0;collapsible=0;dropTarget=0;fillColor=none;points=[[0,0.5],[1,0.5]];portConstraint=eastwest;fontSize=16;" vertex="1" parent="Ntl6VfkrKiZV54SrpeyR-69">
          <mxGeometry y="95" width="290" height="20" as="geometry" />
        </mxCell>
        <mxCell id="Ntl6VfkrKiZV54SrpeyR-198" value="" style="shape=partialRectangle;html=1;whiteSpace=wrap;connectable=0;strokeColor=inherit;overflow=hidden;fillColor=none;top=0;left=0;bottom=0;right=0;pointerEvents=1;fontSize=12;align=left;spacingLeft=5;" vertex="1" parent="Ntl6VfkrKiZV54SrpeyR-197">
          <mxGeometry width="40" height="20" as="geometry">
            <mxRectangle width="40" height="20" as="alternateBounds" />
          </mxGeometry>
        </mxCell>
        <mxCell id="Ntl6VfkrKiZV54SrpeyR-202" value="" style="shape=partialRectangle;html=1;whiteSpace=wrap;connectable=0;strokeColor=inherit;overflow=hidden;fillColor=none;top=0;left=0;bottom=0;right=0;pointerEvents=1;fontSize=12;align=left;spacingLeft=5;" vertex="1" parent="Ntl6VfkrKiZV54SrpeyR-197">
          <mxGeometry x="40" width="250" height="20" as="geometry">
            <mxRectangle width="250" height="20" as="alternateBounds" />
          </mxGeometry>
        </mxCell>
        <mxCell id="Ntl6VfkrKiZV54SrpeyR-199" style="shape=tableRow;horizontal=0;startSize=0;swimlaneHead=0;swimlaneBody=0;strokeColor=inherit;top=0;left=0;bottom=0;right=0;collapsible=0;dropTarget=0;fillColor=none;points=[[0,0.5],[1,0.5]];portConstraint=eastwest;fontSize=16;" vertex="1" parent="Ntl6VfkrKiZV54SrpeyR-69">
          <mxGeometry y="115" width="290" height="15" as="geometry" />
        </mxCell>
        <mxCell id="Ntl6VfkrKiZV54SrpeyR-200" value="" style="shape=partialRectangle;html=1;whiteSpace=wrap;connectable=0;strokeColor=inherit;overflow=hidden;fillColor=none;top=0;left=0;bottom=0;right=0;pointerEvents=1;fontSize=12;align=left;spacingLeft=5;" vertex="1" parent="Ntl6VfkrKiZV54SrpeyR-199">
          <mxGeometry width="40" height="15" as="geometry">
            <mxRectangle width="40" height="15" as="alternateBounds" />
          </mxGeometry>
        </mxCell>
        <mxCell id="Ntl6VfkrKiZV54SrpeyR-201" value="" style="shape=partialRectangle;html=1;whiteSpace=wrap;connectable=0;strokeColor=inherit;overflow=hidden;fillColor=none;top=0;left=0;bottom=0;right=0;pointerEvents=1;fontSize=12;align=left;spacingLeft=5;" vertex="1" parent="Ntl6VfkrKiZV54SrpeyR-199">
          <mxGeometry x="40" width="250" height="15" as="geometry">
            <mxRectangle width="250" height="15" as="alternateBounds" />
          </mxGeometry>
        </mxCell>
        <mxCell id="Ntl6VfkrKiZV54SrpeyR-73" value="" style="shape=tableRow;horizontal=0;startSize=0;swimlaneHead=0;swimlaneBody=0;top=0;left=0;bottom=0;right=0;collapsible=0;dropTarget=0;fillColor=none;points=[[0,0.5],[1,0.5]];portConstraint=eastwest;strokeColor=#909090;fontSize=16;rounded=0;labelBackgroundColor=none;fontColor=#1A1A1A;" vertex="1" parent="Ntl6VfkrKiZV54SrpeyR-69">
          <mxGeometry y="130" width="290" height="30" as="geometry" />
        </mxCell>
        <mxCell id="Ntl6VfkrKiZV54SrpeyR-74" value="2" style="shape=partialRectangle;html=1;whiteSpace=wrap;connectable=0;fillColor=none;top=0;left=0;bottom=0;right=0;overflow=hidden;strokeColor=#909090;fontSize=16;rounded=0;labelBackgroundColor=none;fontColor=#1A1A1A;" vertex="1" parent="Ntl6VfkrKiZV54SrpeyR-73">
          <mxGeometry width="40" height="30" as="geometry">
            <mxRectangle width="40" height="30" as="alternateBounds" />
          </mxGeometry>
        </mxCell>
        <mxCell id="Ntl6VfkrKiZV54SrpeyR-75" value="Supplier" style="shape=partialRectangle;html=1;whiteSpace=wrap;connectable=0;fillColor=none;top=0;left=0;bottom=0;right=0;align=left;spacingLeft=6;overflow=hidden;strokeColor=#909090;fontSize=16;rounded=0;labelBackgroundColor=none;fontColor=#1A1A1A;" vertex="1" parent="Ntl6VfkrKiZV54SrpeyR-73">
          <mxGeometry x="40" width="250" height="30" as="geometry">
            <mxRectangle width="250" height="30" as="alternateBounds" />
          </mxGeometry>
        </mxCell>
        <mxCell id="Ntl6VfkrKiZV54SrpeyR-206" value="" style="shape=tableRow;horizontal=0;startSize=0;swimlaneHead=0;swimlaneBody=0;strokeColor=inherit;top=0;left=0;bottom=0;right=0;collapsible=0;dropTarget=0;fillColor=none;points=[[0,0.5],[1,0.5]];portConstraint=eastwest;fontSize=16;" vertex="1" parent="Ntl6VfkrKiZV54SrpeyR-69">
          <mxGeometry y="160" width="290" height="15" as="geometry" />
        </mxCell>
        <mxCell id="Ntl6VfkrKiZV54SrpeyR-207" value="Item 1" style="shape=partialRectangle;html=1;whiteSpace=wrap;connectable=0;strokeColor=inherit;overflow=hidden;fillColor=none;top=0;left=0;bottom=0;right=0;pointerEvents=1;fontSize=12;align=left;spacingLeft=5;" vertex="1" parent="Ntl6VfkrKiZV54SrpeyR-206">
          <mxGeometry width="40" height="15" as="geometry">
            <mxRectangle width="40" height="15" as="alternateBounds" />
          </mxGeometry>
        </mxCell>
        <mxCell id="Ntl6VfkrKiZV54SrpeyR-217" value="Get Fresh ( Distributor)" style="shape=partialRectangle;html=1;whiteSpace=wrap;connectable=0;strokeColor=inherit;overflow=hidden;fillColor=none;top=0;left=0;bottom=0;right=0;pointerEvents=1;fontSize=12;align=left;spacingLeft=5;" vertex="1" parent="Ntl6VfkrKiZV54SrpeyR-206">
          <mxGeometry x="40" width="250" height="15" as="geometry">
            <mxRectangle width="250" height="15" as="alternateBounds" />
          </mxGeometry>
        </mxCell>
        <mxCell id="Ntl6VfkrKiZV54SrpeyR-208" value="" style="shape=tableRow;horizontal=0;startSize=0;swimlaneHead=0;swimlaneBody=0;strokeColor=inherit;top=0;left=0;bottom=0;right=0;collapsible=0;dropTarget=0;fillColor=none;points=[[0,0.5],[1,0.5]];portConstraint=eastwest;fontSize=16;" vertex="1" parent="Ntl6VfkrKiZV54SrpeyR-69">
          <mxGeometry y="175" width="290" height="15" as="geometry" />
        </mxCell>
        <mxCell id="Ntl6VfkrKiZV54SrpeyR-209" value="Item 2" style="shape=partialRectangle;html=1;whiteSpace=wrap;connectable=0;strokeColor=inherit;overflow=hidden;fillColor=none;top=0;left=0;bottom=0;right=0;pointerEvents=1;fontSize=12;align=left;spacingLeft=5;" vertex="1" parent="Ntl6VfkrKiZV54SrpeyR-208">
          <mxGeometry width="40" height="15" as="geometry">
            <mxRectangle width="40" height="15" as="alternateBounds" />
          </mxGeometry>
        </mxCell>
        <mxCell id="Ntl6VfkrKiZV54SrpeyR-216" value="Farmers" style="shape=partialRectangle;html=1;whiteSpace=wrap;connectable=0;strokeColor=inherit;overflow=hidden;fillColor=none;top=0;left=0;bottom=0;right=0;pointerEvents=1;fontSize=12;align=left;spacingLeft=5;" vertex="1" parent="Ntl6VfkrKiZV54SrpeyR-208">
          <mxGeometry x="40" width="250" height="15" as="geometry">
            <mxRectangle width="250" height="15" as="alternateBounds" />
          </mxGeometry>
        </mxCell>
        <mxCell id="Ntl6VfkrKiZV54SrpeyR-210" value="" style="shape=tableRow;horizontal=0;startSize=0;swimlaneHead=0;swimlaneBody=0;strokeColor=inherit;top=0;left=0;bottom=0;right=0;collapsible=0;dropTarget=0;fillColor=none;points=[[0,0.5],[1,0.5]];portConstraint=eastwest;fontSize=16;" vertex="1" parent="Ntl6VfkrKiZV54SrpeyR-69">
          <mxGeometry y="190" width="290" height="15" as="geometry" />
        </mxCell>
        <mxCell id="Ntl6VfkrKiZV54SrpeyR-211" value="" style="shape=partialRectangle;html=1;whiteSpace=wrap;connectable=0;strokeColor=inherit;overflow=hidden;fillColor=none;top=0;left=0;bottom=0;right=0;pointerEvents=1;fontSize=12;align=left;spacingLeft=5;" vertex="1" parent="Ntl6VfkrKiZV54SrpeyR-210">
          <mxGeometry width="40" height="15" as="geometry">
            <mxRectangle width="40" height="15" as="alternateBounds" />
          </mxGeometry>
        </mxCell>
        <mxCell id="Ntl6VfkrKiZV54SrpeyR-215" value="" style="shape=partialRectangle;html=1;whiteSpace=wrap;connectable=0;strokeColor=inherit;overflow=hidden;fillColor=none;top=0;left=0;bottom=0;right=0;pointerEvents=1;fontSize=12;align=left;spacingLeft=5;" vertex="1" parent="Ntl6VfkrKiZV54SrpeyR-210">
          <mxGeometry x="40" width="250" height="15" as="geometry">
            <mxRectangle width="250" height="15" as="alternateBounds" />
          </mxGeometry>
        </mxCell>
        <mxCell id="Ntl6VfkrKiZV54SrpeyR-212" style="shape=tableRow;horizontal=0;startSize=0;swimlaneHead=0;swimlaneBody=0;strokeColor=inherit;top=0;left=0;bottom=0;right=0;collapsible=0;dropTarget=0;fillColor=none;points=[[0,0.5],[1,0.5]];portConstraint=eastwest;fontSize=16;" vertex="1" parent="Ntl6VfkrKiZV54SrpeyR-69">
          <mxGeometry y="205" width="290" height="15" as="geometry" />
        </mxCell>
        <mxCell id="Ntl6VfkrKiZV54SrpeyR-213" value="" style="shape=partialRectangle;html=1;whiteSpace=wrap;connectable=0;strokeColor=inherit;overflow=hidden;fillColor=none;top=0;left=0;bottom=0;right=0;pointerEvents=1;fontSize=12;align=left;spacingLeft=5;" vertex="1" parent="Ntl6VfkrKiZV54SrpeyR-212">
          <mxGeometry width="40" height="15" as="geometry">
            <mxRectangle width="40" height="15" as="alternateBounds" />
          </mxGeometry>
        </mxCell>
        <mxCell id="Ntl6VfkrKiZV54SrpeyR-214" value="" style="shape=partialRectangle;html=1;whiteSpace=wrap;connectable=0;strokeColor=inherit;overflow=hidden;fillColor=none;top=0;left=0;bottom=0;right=0;pointerEvents=1;fontSize=12;align=left;spacingLeft=5;" vertex="1" parent="Ntl6VfkrKiZV54SrpeyR-212">
          <mxGeometry x="40" width="250" height="15" as="geometry">
            <mxRectangle width="250" height="15" as="alternateBounds" />
          </mxGeometry>
        </mxCell>
        <mxCell id="Ntl6VfkrKiZV54SrpeyR-76" value="" style="shape=tableRow;horizontal=0;startSize=0;swimlaneHead=0;swimlaneBody=0;top=0;left=0;bottom=0;right=0;collapsible=0;dropTarget=0;fillColor=none;points=[[0,0.5],[1,0.5]];portConstraint=eastwest;strokeColor=#909090;fontSize=16;rounded=0;labelBackgroundColor=none;fontColor=#1A1A1A;" vertex="1" parent="Ntl6VfkrKiZV54SrpeyR-69">
          <mxGeometry y="220" width="290" height="30" as="geometry" />
        </mxCell>
        <mxCell id="Ntl6VfkrKiZV54SrpeyR-77" value="3" style="shape=partialRectangle;html=1;whiteSpace=wrap;connectable=0;fillColor=none;top=0;left=0;bottom=0;right=0;overflow=hidden;strokeColor=#909090;fontSize=16;rounded=0;labelBackgroundColor=none;fontColor=#1A1A1A;" vertex="1" parent="Ntl6VfkrKiZV54SrpeyR-76">
          <mxGeometry width="40" height="30" as="geometry">
            <mxRectangle width="40" height="30" as="alternateBounds" />
          </mxGeometry>
        </mxCell>
        <mxCell id="Ntl6VfkrKiZV54SrpeyR-78" value="Services" style="shape=partialRectangle;html=1;whiteSpace=wrap;connectable=0;fillColor=none;top=0;left=0;bottom=0;right=0;align=left;spacingLeft=6;overflow=hidden;strokeColor=#909090;fontSize=16;rounded=0;labelBackgroundColor=none;fontColor=#1A1A1A;" vertex="1" parent="Ntl6VfkrKiZV54SrpeyR-76">
          <mxGeometry x="40" width="250" height="30" as="geometry">
            <mxRectangle width="250" height="30" as="alternateBounds" />
          </mxGeometry>
        </mxCell>
        <mxCell id="Ntl6VfkrKiZV54SrpeyR-163" value="" style="shape=tableRow;horizontal=0;startSize=0;swimlaneHead=0;swimlaneBody=0;strokeColor=inherit;top=0;left=0;bottom=0;right=0;collapsible=0;dropTarget=0;fillColor=none;points=[[0,0.5],[1,0.5]];portConstraint=eastwest;fontSize=16;" vertex="1" parent="Ntl6VfkrKiZV54SrpeyR-69">
          <mxGeometry y="250" width="290" height="15" as="geometry" />
        </mxCell>
        <mxCell id="Ntl6VfkrKiZV54SrpeyR-164" value="Item 1" style="shape=partialRectangle;html=1;whiteSpace=wrap;connectable=0;strokeColor=inherit;overflow=hidden;fillColor=none;top=0;left=0;bottom=0;right=0;pointerEvents=1;fontSize=12;align=left;spacingLeft=5;" vertex="1" parent="Ntl6VfkrKiZV54SrpeyR-163">
          <mxGeometry width="40" height="15" as="geometry">
            <mxRectangle width="40" height="15" as="alternateBounds" />
          </mxGeometry>
        </mxCell>
        <mxCell id="Ntl6VfkrKiZV54SrpeyR-165" value="Reservations" style="shape=partialRectangle;html=1;whiteSpace=wrap;connectable=0;strokeColor=inherit;overflow=hidden;fillColor=none;top=0;left=0;bottom=0;right=0;pointerEvents=1;fontSize=12;align=left;spacingLeft=5;" vertex="1" parent="Ntl6VfkrKiZV54SrpeyR-163">
          <mxGeometry x="40" width="250" height="15" as="geometry">
            <mxRectangle width="250" height="15" as="alternateBounds" />
          </mxGeometry>
        </mxCell>
        <mxCell id="Ntl6VfkrKiZV54SrpeyR-160" value="" style="shape=tableRow;horizontal=0;startSize=0;swimlaneHead=0;swimlaneBody=0;strokeColor=inherit;top=0;left=0;bottom=0;right=0;collapsible=0;dropTarget=0;fillColor=none;points=[[0,0.5],[1,0.5]];portConstraint=eastwest;fontSize=16;" vertex="1" parent="Ntl6VfkrKiZV54SrpeyR-69">
          <mxGeometry y="265" width="290" height="15" as="geometry" />
        </mxCell>
        <mxCell id="Ntl6VfkrKiZV54SrpeyR-161" value="Item 2" style="shape=partialRectangle;html=1;whiteSpace=wrap;connectable=0;strokeColor=inherit;overflow=hidden;fillColor=none;top=0;left=0;bottom=0;right=0;pointerEvents=1;fontSize=12;align=left;spacingLeft=5;" vertex="1" parent="Ntl6VfkrKiZV54SrpeyR-160">
          <mxGeometry width="40" height="15" as="geometry">
            <mxRectangle width="40" height="15" as="alternateBounds" />
          </mxGeometry>
        </mxCell>
        <mxCell id="Ntl6VfkrKiZV54SrpeyR-162" value="Dining" style="shape=partialRectangle;html=1;whiteSpace=wrap;connectable=0;strokeColor=inherit;overflow=hidden;fillColor=none;top=0;left=0;bottom=0;right=0;pointerEvents=1;fontSize=12;align=left;spacingLeft=5;" vertex="1" parent="Ntl6VfkrKiZV54SrpeyR-160">
          <mxGeometry x="40" width="250" height="15" as="geometry">
            <mxRectangle width="250" height="15" as="alternateBounds" />
          </mxGeometry>
        </mxCell>
        <mxCell id="Ntl6VfkrKiZV54SrpeyR-157" value="" style="shape=tableRow;horizontal=0;startSize=0;swimlaneHead=0;swimlaneBody=0;strokeColor=inherit;top=0;left=0;bottom=0;right=0;collapsible=0;dropTarget=0;fillColor=none;points=[[0,0.5],[1,0.5]];portConstraint=eastwest;fontSize=16;" vertex="1" parent="Ntl6VfkrKiZV54SrpeyR-69">
          <mxGeometry y="280" width="290" height="15" as="geometry" />
        </mxCell>
        <mxCell id="Ntl6VfkrKiZV54SrpeyR-158" value="Item 3" style="shape=partialRectangle;html=1;whiteSpace=wrap;connectable=0;strokeColor=inherit;overflow=hidden;fillColor=none;top=0;left=0;bottom=0;right=0;pointerEvents=1;fontSize=12;align=left;spacingLeft=5;" vertex="1" parent="Ntl6VfkrKiZV54SrpeyR-157">
          <mxGeometry width="40" height="15" as="geometry">
            <mxRectangle width="40" height="15" as="alternateBounds" />
          </mxGeometry>
        </mxCell>
        <mxCell id="Ntl6VfkrKiZV54SrpeyR-159" value="TakeOut ( Delivery/ Pickup)" style="shape=partialRectangle;html=1;whiteSpace=wrap;connectable=0;strokeColor=inherit;overflow=hidden;fillColor=none;top=0;left=0;bottom=0;right=0;pointerEvents=1;fontSize=12;align=left;spacingLeft=5;" vertex="1" parent="Ntl6VfkrKiZV54SrpeyR-157">
          <mxGeometry x="40" width="250" height="15" as="geometry">
            <mxRectangle width="250" height="15" as="alternateBounds" />
          </mxGeometry>
        </mxCell>
        <mxCell id="Ntl6VfkrKiZV54SrpeyR-81" value="" style="shape=tableRow;horizontal=0;startSize=0;swimlaneHead=0;swimlaneBody=0;top=0;left=0;bottom=0;right=0;collapsible=0;dropTarget=0;fillColor=none;points=[[0,0.5],[1,0.5]];portConstraint=eastwest;strokeColor=#909090;fontSize=16;rounded=0;labelBackgroundColor=none;fontColor=#1A1A1A;" vertex="1" parent="Ntl6VfkrKiZV54SrpeyR-69">
          <mxGeometry y="295" width="290" height="30" as="geometry" />
        </mxCell>
        <mxCell id="Ntl6VfkrKiZV54SrpeyR-82" value="4" style="shape=partialRectangle;html=1;whiteSpace=wrap;connectable=0;fillColor=none;top=0;left=0;bottom=0;right=0;overflow=hidden;pointerEvents=1;strokeColor=#909090;fontSize=16;rounded=0;labelBackgroundColor=none;fontColor=#1A1A1A;" vertex="1" parent="Ntl6VfkrKiZV54SrpeyR-81">
          <mxGeometry width="40" height="30" as="geometry">
            <mxRectangle width="40" height="30" as="alternateBounds" />
          </mxGeometry>
        </mxCell>
        <mxCell id="Ntl6VfkrKiZV54SrpeyR-83" value="Customer Satisfaction" style="shape=partialRectangle;html=1;whiteSpace=wrap;connectable=0;fillColor=none;top=0;left=0;bottom=0;right=0;align=left;spacingLeft=6;overflow=hidden;strokeColor=#909090;fontSize=16;rounded=0;labelBackgroundColor=none;fontColor=#1A1A1A;" vertex="1" parent="Ntl6VfkrKiZV54SrpeyR-81">
          <mxGeometry x="40" width="250" height="30" as="geometry">
            <mxRectangle width="250" height="30" as="alternateBounds" />
          </mxGeometry>
        </mxCell>
        <mxCell id="Ntl6VfkrKiZV54SrpeyR-169" value="" style="shape=tableRow;horizontal=0;startSize=0;swimlaneHead=0;swimlaneBody=0;strokeColor=inherit;top=0;left=0;bottom=0;right=0;collapsible=0;dropTarget=0;fillColor=none;points=[[0,0.5],[1,0.5]];portConstraint=eastwest;fontSize=16;" vertex="1" parent="Ntl6VfkrKiZV54SrpeyR-69">
          <mxGeometry y="325" width="290" height="20" as="geometry" />
        </mxCell>
        <mxCell id="Ntl6VfkrKiZV54SrpeyR-170" value="Item 2" style="shape=partialRectangle;html=1;whiteSpace=wrap;connectable=0;strokeColor=inherit;overflow=hidden;fillColor=none;top=0;left=0;bottom=0;right=0;pointerEvents=1;fontSize=12;align=left;spacingLeft=5;" vertex="1" parent="Ntl6VfkrKiZV54SrpeyR-169">
          <mxGeometry width="40" height="20" as="geometry">
            <mxRectangle width="40" height="20" as="alternateBounds" />
          </mxGeometry>
        </mxCell>
        <mxCell id="Ntl6VfkrKiZV54SrpeyR-177" value="Phone Number" style="shape=partialRectangle;html=1;whiteSpace=wrap;connectable=0;strokeColor=inherit;overflow=hidden;fillColor=none;top=0;left=0;bottom=0;right=0;pointerEvents=1;fontSize=12;align=left;spacingLeft=5;" vertex="1" parent="Ntl6VfkrKiZV54SrpeyR-169">
          <mxGeometry x="40" width="250" height="20" as="geometry">
            <mxRectangle width="250" height="20" as="alternateBounds" />
          </mxGeometry>
        </mxCell>
        <mxCell id="Ntl6VfkrKiZV54SrpeyR-167" value="" style="shape=tableRow;horizontal=0;startSize=0;swimlaneHead=0;swimlaneBody=0;strokeColor=inherit;top=0;left=0;bottom=0;right=0;collapsible=0;dropTarget=0;fillColor=none;points=[[0,0.5],[1,0.5]];portConstraint=eastwest;fontSize=16;" vertex="1" parent="Ntl6VfkrKiZV54SrpeyR-69">
          <mxGeometry y="345" width="290" height="20" as="geometry" />
        </mxCell>
        <mxCell id="Ntl6VfkrKiZV54SrpeyR-168" value="Item 1" style="shape=partialRectangle;html=1;whiteSpace=wrap;connectable=0;strokeColor=inherit;overflow=hidden;fillColor=none;top=0;left=0;bottom=0;right=0;pointerEvents=1;fontSize=12;align=left;spacingLeft=5;" vertex="1" parent="Ntl6VfkrKiZV54SrpeyR-167">
          <mxGeometry width="40" height="20" as="geometry">
            <mxRectangle width="40" height="20" as="alternateBounds" />
          </mxGeometry>
        </mxCell>
        <mxCell id="Ntl6VfkrKiZV54SrpeyR-178" value="Survey" style="shape=partialRectangle;html=1;whiteSpace=wrap;connectable=0;strokeColor=inherit;overflow=hidden;fillColor=none;top=0;left=0;bottom=0;right=0;pointerEvents=1;fontSize=12;align=left;spacingLeft=5;" vertex="1" parent="Ntl6VfkrKiZV54SrpeyR-167">
          <mxGeometry x="40" width="250" height="20" as="geometry">
            <mxRectangle width="250" height="20" as="alternateBounds" />
          </mxGeometry>
        </mxCell>
        <mxCell id="Ntl6VfkrKiZV54SrpeyR-171" value="" style="shape=tableRow;horizontal=0;startSize=0;swimlaneHead=0;swimlaneBody=0;strokeColor=inherit;top=0;left=0;bottom=0;right=0;collapsible=0;dropTarget=0;fillColor=none;points=[[0,0.5],[1,0.5]];portConstraint=eastwest;fontSize=16;" vertex="1" parent="Ntl6VfkrKiZV54SrpeyR-69">
          <mxGeometry y="365" width="290" height="15" as="geometry" />
        </mxCell>
        <mxCell id="Ntl6VfkrKiZV54SrpeyR-172" value="Item 3" style="shape=partialRectangle;html=1;whiteSpace=wrap;connectable=0;strokeColor=inherit;overflow=hidden;fillColor=none;top=0;left=0;bottom=0;right=0;pointerEvents=1;fontSize=12;align=left;spacingLeft=5;" vertex="1" parent="Ntl6VfkrKiZV54SrpeyR-171">
          <mxGeometry width="40" height="15" as="geometry">
            <mxRectangle width="40" height="15" as="alternateBounds" />
          </mxGeometry>
        </mxCell>
        <mxCell id="Ntl6VfkrKiZV54SrpeyR-176" value="Rewards Program" style="shape=partialRectangle;html=1;whiteSpace=wrap;connectable=0;strokeColor=inherit;overflow=hidden;fillColor=none;top=0;left=0;bottom=0;right=0;pointerEvents=1;fontSize=12;align=left;spacingLeft=5;" vertex="1" parent="Ntl6VfkrKiZV54SrpeyR-171">
          <mxGeometry x="40" width="250" height="15" as="geometry">
            <mxRectangle width="250" height="15" as="alternateBounds" />
          </mxGeometry>
        </mxCell>
        <mxCell id="Ntl6VfkrKiZV54SrpeyR-173" style="shape=tableRow;horizontal=0;startSize=0;swimlaneHead=0;swimlaneBody=0;strokeColor=inherit;top=0;left=0;bottom=0;right=0;collapsible=0;dropTarget=0;fillColor=none;points=[[0,0.5],[1,0.5]];portConstraint=eastwest;fontSize=16;" vertex="1" parent="Ntl6VfkrKiZV54SrpeyR-69">
          <mxGeometry y="380" width="290" height="15" as="geometry" />
        </mxCell>
        <mxCell id="Ntl6VfkrKiZV54SrpeyR-174" value="Item 4" style="shape=partialRectangle;html=1;whiteSpace=wrap;connectable=0;strokeColor=inherit;overflow=hidden;fillColor=none;top=0;left=0;bottom=0;right=0;pointerEvents=1;fontSize=12;align=left;spacingLeft=5;" vertex="1" parent="Ntl6VfkrKiZV54SrpeyR-173">
          <mxGeometry width="40" height="15" as="geometry">
            <mxRectangle width="40" height="15" as="alternateBounds" />
          </mxGeometry>
        </mxCell>
        <mxCell id="Ntl6VfkrKiZV54SrpeyR-175" value="Email Campagns" style="shape=partialRectangle;html=1;whiteSpace=wrap;connectable=0;strokeColor=inherit;overflow=hidden;fillColor=none;top=0;left=0;bottom=0;right=0;pointerEvents=1;fontSize=12;align=left;spacingLeft=5;" vertex="1" parent="Ntl6VfkrKiZV54SrpeyR-173">
          <mxGeometry x="40" width="250" height="15" as="geometry">
            <mxRectangle width="250" height="15" as="alternateBounds" />
          </mxGeometry>
        </mxCell>
        <mxCell id="Ntl6VfkrKiZV54SrpeyR-84" value="" style="shape=tableRow;horizontal=0;startSize=0;swimlaneHead=0;swimlaneBody=0;top=0;left=0;bottom=0;right=0;collapsible=0;dropTarget=0;fillColor=none;points=[[0,0.5],[1,0.5]];portConstraint=eastwest;strokeColor=#909090;fontSize=16;rounded=0;labelBackgroundColor=none;fontColor=#1A1A1A;" vertex="1" parent="Ntl6VfkrKiZV54SrpeyR-69">
          <mxGeometry y="395" width="290" height="40" as="geometry" />
        </mxCell>
        <mxCell id="Ntl6VfkrKiZV54SrpeyR-85" value="5" style="shape=partialRectangle;html=1;whiteSpace=wrap;connectable=0;fillColor=none;top=0;left=0;bottom=0;right=0;overflow=hidden;strokeColor=#909090;fontSize=16;rounded=0;labelBackgroundColor=none;fontColor=#1A1A1A;" vertex="1" parent="Ntl6VfkrKiZV54SrpeyR-84">
          <mxGeometry width="40" height="40" as="geometry">
            <mxRectangle width="40" height="40" as="alternateBounds" />
          </mxGeometry>
        </mxCell>
        <mxCell id="Ntl6VfkrKiZV54SrpeyR-86" value="Workers" style="shape=partialRectangle;html=1;whiteSpace=wrap;connectable=0;fillColor=none;top=0;left=0;bottom=0;right=0;align=left;spacingLeft=6;overflow=hidden;strokeColor=#909090;fontSize=16;rounded=0;labelBackgroundColor=none;fontColor=#1A1A1A;" vertex="1" parent="Ntl6VfkrKiZV54SrpeyR-84">
          <mxGeometry x="40" width="250" height="40" as="geometry">
            <mxRectangle width="250" height="40" as="alternateBounds" />
          </mxGeometry>
        </mxCell>
        <mxCell id="Ntl6VfkrKiZV54SrpeyR-142" value="" style="shape=tableRow;horizontal=0;startSize=0;swimlaneHead=0;swimlaneBody=0;strokeColor=inherit;top=0;left=0;bottom=0;right=0;collapsible=0;dropTarget=0;fillColor=none;points=[[0,0.5],[1,0.5]];portConstraint=eastwest;fontSize=16;" vertex="1" parent="Ntl6VfkrKiZV54SrpeyR-69">
          <mxGeometry y="435" width="290" height="15" as="geometry" />
        </mxCell>
        <mxCell id="Ntl6VfkrKiZV54SrpeyR-143" value="Item 1" style="shape=partialRectangle;html=1;whiteSpace=wrap;connectable=0;strokeColor=inherit;overflow=hidden;fillColor=none;top=0;left=0;bottom=0;right=0;pointerEvents=1;fontSize=12;align=left;spacingLeft=5;" vertex="1" parent="Ntl6VfkrKiZV54SrpeyR-142">
          <mxGeometry width="40" height="15" as="geometry">
            <mxRectangle width="40" height="15" as="alternateBounds" />
          </mxGeometry>
        </mxCell>
        <mxCell id="Ntl6VfkrKiZV54SrpeyR-153" value="Cashiers" style="shape=partialRectangle;html=1;whiteSpace=wrap;connectable=0;strokeColor=inherit;overflow=hidden;fillColor=none;top=0;left=0;bottom=0;right=0;pointerEvents=1;fontSize=12;align=left;spacingLeft=5;" vertex="1" parent="Ntl6VfkrKiZV54SrpeyR-142">
          <mxGeometry x="40" width="250" height="15" as="geometry">
            <mxRectangle width="250" height="15" as="alternateBounds" />
          </mxGeometry>
        </mxCell>
        <mxCell id="Ntl6VfkrKiZV54SrpeyR-144" value="" style="shape=tableRow;horizontal=0;startSize=0;swimlaneHead=0;swimlaneBody=0;strokeColor=inherit;top=0;left=0;bottom=0;right=0;collapsible=0;dropTarget=0;fillColor=none;points=[[0,0.5],[1,0.5]];portConstraint=eastwest;fontSize=16;" vertex="1" parent="Ntl6VfkrKiZV54SrpeyR-69">
          <mxGeometry y="450" width="290" height="15" as="geometry" />
        </mxCell>
        <mxCell id="Ntl6VfkrKiZV54SrpeyR-145" value="Item 2" style="shape=partialRectangle;html=1;whiteSpace=wrap;connectable=0;strokeColor=inherit;overflow=hidden;fillColor=none;top=0;left=0;bottom=0;right=0;pointerEvents=1;fontSize=12;align=left;spacingLeft=5;" vertex="1" parent="Ntl6VfkrKiZV54SrpeyR-144">
          <mxGeometry width="40" height="15" as="geometry">
            <mxRectangle width="40" height="15" as="alternateBounds" />
          </mxGeometry>
        </mxCell>
        <mxCell id="Ntl6VfkrKiZV54SrpeyR-152" value="Drivers" style="shape=partialRectangle;html=1;whiteSpace=wrap;connectable=0;strokeColor=inherit;overflow=hidden;fillColor=none;top=0;left=0;bottom=0;right=0;pointerEvents=1;fontSize=12;align=left;spacingLeft=5;" vertex="1" parent="Ntl6VfkrKiZV54SrpeyR-144">
          <mxGeometry x="40" width="250" height="15" as="geometry">
            <mxRectangle width="250" height="15" as="alternateBounds" />
          </mxGeometry>
        </mxCell>
        <mxCell id="Ntl6VfkrKiZV54SrpeyR-146" value="" style="shape=tableRow;horizontal=0;startSize=0;swimlaneHead=0;swimlaneBody=0;strokeColor=inherit;top=0;left=0;bottom=0;right=0;collapsible=0;dropTarget=0;fillColor=none;points=[[0,0.5],[1,0.5]];portConstraint=eastwest;fontSize=16;" vertex="1" parent="Ntl6VfkrKiZV54SrpeyR-69">
          <mxGeometry y="465" width="290" height="20" as="geometry" />
        </mxCell>
        <mxCell id="Ntl6VfkrKiZV54SrpeyR-147" value="Item 3" style="shape=partialRectangle;html=1;whiteSpace=wrap;connectable=0;strokeColor=inherit;overflow=hidden;fillColor=none;top=0;left=0;bottom=0;right=0;pointerEvents=1;fontSize=12;align=left;spacingLeft=5;" vertex="1" parent="Ntl6VfkrKiZV54SrpeyR-146">
          <mxGeometry width="40" height="20" as="geometry">
            <mxRectangle width="40" height="20" as="alternateBounds" />
          </mxGeometry>
        </mxCell>
        <mxCell id="Ntl6VfkrKiZV54SrpeyR-151" value="Managers" style="shape=partialRectangle;html=1;whiteSpace=wrap;connectable=0;strokeColor=inherit;overflow=hidden;fillColor=none;top=0;left=0;bottom=0;right=0;pointerEvents=1;fontSize=12;align=left;spacingLeft=5;" vertex="1" parent="Ntl6VfkrKiZV54SrpeyR-146">
          <mxGeometry x="40" width="250" height="20" as="geometry">
            <mxRectangle width="250" height="20" as="alternateBounds" />
          </mxGeometry>
        </mxCell>
        <mxCell id="Ntl6VfkrKiZV54SrpeyR-148" style="shape=tableRow;horizontal=0;startSize=0;swimlaneHead=0;swimlaneBody=0;strokeColor=inherit;top=0;left=0;bottom=0;right=0;collapsible=0;dropTarget=0;fillColor=none;points=[[0,0.5],[1,0.5]];portConstraint=eastwest;fontSize=16;" vertex="1" parent="Ntl6VfkrKiZV54SrpeyR-69">
          <mxGeometry y="485" width="290" height="20" as="geometry" />
        </mxCell>
        <mxCell id="Ntl6VfkrKiZV54SrpeyR-149" value="Item 4" style="shape=partialRectangle;html=1;whiteSpace=wrap;connectable=0;strokeColor=inherit;overflow=hidden;fillColor=none;top=0;left=0;bottom=0;right=0;pointerEvents=1;fontSize=12;align=left;spacingLeft=5;" vertex="1" parent="Ntl6VfkrKiZV54SrpeyR-148">
          <mxGeometry width="40" height="20" as="geometry">
            <mxRectangle width="40" height="20" as="alternateBounds" />
          </mxGeometry>
        </mxCell>
        <mxCell id="Ntl6VfkrKiZV54SrpeyR-150" value="IT and Tech&amp;nbsp;" style="shape=partialRectangle;html=1;whiteSpace=wrap;connectable=0;strokeColor=inherit;overflow=hidden;fillColor=none;top=0;left=0;bottom=0;right=0;pointerEvents=1;fontSize=12;align=left;spacingLeft=5;" vertex="1" parent="Ntl6VfkrKiZV54SrpeyR-148">
          <mxGeometry x="40" width="250" height="20" as="geometry">
            <mxRectangle width="250" height="20" as="alternateBounds" />
          </mxGeometry>
        </mxCell>
        <mxCell id="Ntl6VfkrKiZV54SrpeyR-87" value="" style="shape=tableRow;horizontal=0;startSize=0;swimlaneHead=0;swimlaneBody=0;top=0;left=0;bottom=0;right=0;collapsible=0;dropTarget=0;fillColor=none;points=[[0,0.5],[1,0.5]];portConstraint=eastwest;strokeColor=#909090;fontSize=16;rounded=0;labelBackgroundColor=none;fontColor=#1A1A1A;" vertex="1" parent="Ntl6VfkrKiZV54SrpeyR-69">
          <mxGeometry y="505" width="290" height="30" as="geometry" />
        </mxCell>
        <mxCell id="Ntl6VfkrKiZV54SrpeyR-88" value="6" style="shape=partialRectangle;html=1;whiteSpace=wrap;connectable=0;fillColor=none;top=0;left=0;bottom=0;right=0;overflow=hidden;strokeColor=#909090;fontSize=16;rounded=0;labelBackgroundColor=none;fontColor=#1A1A1A;" vertex="1" parent="Ntl6VfkrKiZV54SrpeyR-87">
          <mxGeometry width="40" height="30" as="geometry">
            <mxRectangle width="40" height="30" as="alternateBounds" />
          </mxGeometry>
        </mxCell>
        <mxCell id="Ntl6VfkrKiZV54SrpeyR-89" value="Advertisement" style="shape=partialRectangle;html=1;whiteSpace=wrap;connectable=0;fillColor=none;top=0;left=0;bottom=0;right=0;align=left;spacingLeft=6;overflow=hidden;strokeColor=#909090;fontSize=16;rounded=0;labelBackgroundColor=none;fontColor=#1A1A1A;" vertex="1" parent="Ntl6VfkrKiZV54SrpeyR-87">
          <mxGeometry x="40" width="250" height="30" as="geometry">
            <mxRectangle width="250" height="30" as="alternateBounds" />
          </mxGeometry>
        </mxCell>
        <mxCell id="Ntl6VfkrKiZV54SrpeyR-120" value="" style="shape=tableRow;horizontal=0;startSize=0;swimlaneHead=0;swimlaneBody=0;strokeColor=inherit;top=0;left=0;bottom=0;right=0;collapsible=0;dropTarget=0;fillColor=none;points=[[0,0.5],[1,0.5]];portConstraint=eastwest;fontSize=16;" vertex="1" parent="Ntl6VfkrKiZV54SrpeyR-69">
          <mxGeometry y="535" width="290" height="15" as="geometry" />
        </mxCell>
        <mxCell id="Ntl6VfkrKiZV54SrpeyR-121" value="Item 3" style="shape=partialRectangle;html=1;whiteSpace=wrap;connectable=0;strokeColor=inherit;overflow=hidden;fillColor=none;top=0;left=0;bottom=0;right=0;pointerEvents=1;fontSize=12;align=left;spacingLeft=5;" vertex="1" parent="Ntl6VfkrKiZV54SrpeyR-120">
          <mxGeometry width="40" height="15" as="geometry">
            <mxRectangle width="40" height="15" as="alternateBounds" />
          </mxGeometry>
        </mxCell>
        <mxCell id="Ntl6VfkrKiZV54SrpeyR-125" value="Online Ads" style="shape=partialRectangle;html=1;whiteSpace=wrap;connectable=0;strokeColor=inherit;overflow=hidden;fillColor=none;top=0;left=0;bottom=0;right=0;pointerEvents=1;fontSize=12;align=left;spacingLeft=5;" vertex="1" parent="Ntl6VfkrKiZV54SrpeyR-120">
          <mxGeometry x="40" width="250" height="15" as="geometry">
            <mxRectangle width="250" height="15" as="alternateBounds" />
          </mxGeometry>
        </mxCell>
        <mxCell id="Ntl6VfkrKiZV54SrpeyR-118" value="" style="shape=tableRow;horizontal=0;startSize=0;swimlaneHead=0;swimlaneBody=0;strokeColor=inherit;top=0;left=0;bottom=0;right=0;collapsible=0;dropTarget=0;fillColor=none;points=[[0,0.5],[1,0.5]];portConstraint=eastwest;fontSize=16;" vertex="1" parent="Ntl6VfkrKiZV54SrpeyR-69">
          <mxGeometry y="550" width="290" height="15" as="geometry" />
        </mxCell>
        <mxCell id="Ntl6VfkrKiZV54SrpeyR-119" value="Item 2" style="shape=partialRectangle;html=1;whiteSpace=wrap;connectable=0;strokeColor=inherit;overflow=hidden;fillColor=none;top=0;left=0;bottom=0;right=0;pointerEvents=1;fontSize=12;align=left;spacingLeft=5;" vertex="1" parent="Ntl6VfkrKiZV54SrpeyR-118">
          <mxGeometry width="40" height="15" as="geometry">
            <mxRectangle width="40" height="15" as="alternateBounds" />
          </mxGeometry>
        </mxCell>
        <mxCell id="Ntl6VfkrKiZV54SrpeyR-126" value="Billboards" style="shape=partialRectangle;html=1;whiteSpace=wrap;connectable=0;strokeColor=inherit;overflow=hidden;fillColor=none;top=0;left=0;bottom=0;right=0;pointerEvents=1;fontSize=12;align=left;spacingLeft=5;" vertex="1" parent="Ntl6VfkrKiZV54SrpeyR-118">
          <mxGeometry x="40" width="250" height="15" as="geometry">
            <mxRectangle width="250" height="15" as="alternateBounds" />
          </mxGeometry>
        </mxCell>
        <mxCell id="Ntl6VfkrKiZV54SrpeyR-116" value="" style="shape=tableRow;horizontal=0;startSize=0;swimlaneHead=0;swimlaneBody=0;strokeColor=inherit;top=0;left=0;bottom=0;right=0;collapsible=0;dropTarget=0;fillColor=none;points=[[0,0.5],[1,0.5]];portConstraint=eastwest;fontSize=16;" vertex="1" parent="Ntl6VfkrKiZV54SrpeyR-69">
          <mxGeometry y="565" width="290" height="15" as="geometry" />
        </mxCell>
        <mxCell id="Ntl6VfkrKiZV54SrpeyR-117" value="Item 1" style="shape=partialRectangle;html=1;whiteSpace=wrap;connectable=0;strokeColor=inherit;overflow=hidden;fillColor=none;top=0;left=0;bottom=0;right=0;pointerEvents=1;fontSize=12;align=left;spacingLeft=5;" vertex="1" parent="Ntl6VfkrKiZV54SrpeyR-116">
          <mxGeometry width="40" height="15" as="geometry">
            <mxRectangle width="40" height="15" as="alternateBounds" />
          </mxGeometry>
        </mxCell>
        <mxCell id="Ntl6VfkrKiZV54SrpeyR-127" value="Flyers" style="shape=partialRectangle;html=1;whiteSpace=wrap;connectable=0;strokeColor=inherit;overflow=hidden;fillColor=none;top=0;left=0;bottom=0;right=0;pointerEvents=1;fontSize=12;align=left;spacingLeft=5;" vertex="1" parent="Ntl6VfkrKiZV54SrpeyR-116">
          <mxGeometry x="40" width="250" height="15" as="geometry">
            <mxRectangle width="250" height="15" as="alternateBounds" />
          </mxGeometry>
        </mxCell>
        <mxCell id="Ntl6VfkrKiZV54SrpeyR-122" style="shape=tableRow;horizontal=0;startSize=0;swimlaneHead=0;swimlaneBody=0;strokeColor=inherit;top=0;left=0;bottom=0;right=0;collapsible=0;dropTarget=0;fillColor=none;points=[[0,0.5],[1,0.5]];portConstraint=eastwest;fontSize=16;" vertex="1" parent="Ntl6VfkrKiZV54SrpeyR-69">
          <mxGeometry y="580" width="290" height="15" as="geometry" />
        </mxCell>
        <mxCell id="Ntl6VfkrKiZV54SrpeyR-123" value="Item 4" style="shape=partialRectangle;html=1;whiteSpace=wrap;connectable=0;strokeColor=inherit;overflow=hidden;fillColor=none;top=0;left=0;bottom=0;right=0;pointerEvents=1;fontSize=12;align=left;spacingLeft=5;" vertex="1" parent="Ntl6VfkrKiZV54SrpeyR-122">
          <mxGeometry width="40" height="15" as="geometry">
            <mxRectangle width="40" height="15" as="alternateBounds" />
          </mxGeometry>
        </mxCell>
        <mxCell id="Ntl6VfkrKiZV54SrpeyR-124" value="Business Cards" style="shape=partialRectangle;html=1;whiteSpace=wrap;connectable=0;strokeColor=inherit;overflow=hidden;fillColor=none;top=0;left=0;bottom=0;right=0;pointerEvents=1;fontSize=12;align=left;spacingLeft=5;" vertex="1" parent="Ntl6VfkrKiZV54SrpeyR-122">
          <mxGeometry x="40" width="250" height="15" as="geometry">
            <mxRectangle width="250" height="15" as="alternateBounds" />
          </mxGeometry>
        </mxCell>
        <mxCell id="Ntl6VfkrKiZV54SrpeyR-91" value="" style="shape=tableRow;horizontal=0;startSize=0;swimlaneHead=0;swimlaneBody=0;top=0;left=0;bottom=0;right=0;collapsible=0;dropTarget=0;fillColor=none;points=[[0,0.5],[1,0.5]];portConstraint=eastwest;strokeColor=#909090;fontSize=16;rounded=0;labelBackgroundColor=none;fontColor=#1A1A1A;" vertex="1" parent="Ntl6VfkrKiZV54SrpeyR-69">
          <mxGeometry y="595" width="290" height="30" as="geometry" />
        </mxCell>
        <mxCell id="Ntl6VfkrKiZV54SrpeyR-92" value="&lt;div&gt;&lt;br&gt;&lt;/div&gt;&lt;div&gt;7&lt;/div&gt;" style="shape=partialRectangle;html=1;whiteSpace=wrap;connectable=0;fillColor=none;top=0;left=0;bottom=0;right=0;overflow=hidden;pointerEvents=1;strokeColor=#909090;fontSize=16;rounded=0;labelBackgroundColor=none;fontColor=#1A1A1A;" vertex="1" parent="Ntl6VfkrKiZV54SrpeyR-91">
          <mxGeometry width="40" height="30" as="geometry">
            <mxRectangle width="40" height="30" as="alternateBounds" />
          </mxGeometry>
        </mxCell>
        <mxCell id="Ntl6VfkrKiZV54SrpeyR-93" value="Transactions" style="shape=partialRectangle;html=1;whiteSpace=wrap;connectable=0;fillColor=none;top=0;left=0;bottom=0;right=0;align=left;spacingLeft=6;overflow=hidden;strokeColor=#909090;fontSize=16;rounded=0;labelBackgroundColor=none;fontColor=#1A1A1A;" vertex="1" parent="Ntl6VfkrKiZV54SrpeyR-91">
          <mxGeometry x="40" width="250" height="30" as="geometry">
            <mxRectangle width="250" height="30" as="alternateBounds" />
          </mxGeometry>
        </mxCell>
        <mxCell id="Ntl6VfkrKiZV54SrpeyR-94" value="" style="shape=tableRow;horizontal=0;startSize=0;swimlaneHead=0;swimlaneBody=0;top=0;left=0;bottom=0;right=0;collapsible=0;dropTarget=0;fillColor=none;points=[[0,0.5],[1,0.5]];portConstraint=eastwest;strokeColor=#909090;fontSize=16;rounded=0;labelBackgroundColor=none;fontColor=#1A1A1A;" vertex="1" parent="Ntl6VfkrKiZV54SrpeyR-69">
          <mxGeometry y="625" width="290" height="30" as="geometry" />
        </mxCell>
        <mxCell id="Ntl6VfkrKiZV54SrpeyR-95" value="" style="shape=partialRectangle;html=1;whiteSpace=wrap;connectable=0;fillColor=none;top=0;left=0;bottom=0;right=0;overflow=hidden;strokeColor=#909090;fontSize=16;rounded=0;labelBackgroundColor=none;fontColor=#1A1A1A;" vertex="1" parent="Ntl6VfkrKiZV54SrpeyR-94">
          <mxGeometry width="40" height="30" as="geometry">
            <mxRectangle width="40" height="30" as="alternateBounds" />
          </mxGeometry>
        </mxCell>
        <mxCell id="Ntl6VfkrKiZV54SrpeyR-96" value="" style="shape=partialRectangle;html=1;whiteSpace=wrap;connectable=0;fillColor=none;top=0;left=0;bottom=0;right=0;align=left;spacingLeft=6;overflow=hidden;strokeColor=#909090;fontSize=16;rounded=0;labelBackgroundColor=none;fontColor=#1A1A1A;" vertex="1" parent="Ntl6VfkrKiZV54SrpeyR-94">
          <mxGeometry x="40" width="250" height="30" as="geometry">
            <mxRectangle width="250" height="30" as="alternateBounds" />
          </mxGeometry>
        </mxCell>
        <mxCell id="Ntl6VfkrKiZV54SrpeyR-133" value="" style="shape=tableRow;horizontal=0;startSize=0;swimlaneHead=0;swimlaneBody=0;strokeColor=inherit;top=0;left=0;bottom=0;right=0;collapsible=0;dropTarget=0;fillColor=none;points=[[0,0.5],[1,0.5]];portConstraint=eastwest;fontSize=16;" vertex="1" parent="Ntl6VfkrKiZV54SrpeyR-69">
          <mxGeometry y="655" width="290" height="15" as="geometry" />
        </mxCell>
        <mxCell id="Ntl6VfkrKiZV54SrpeyR-134" value="Item 3" style="shape=partialRectangle;html=1;whiteSpace=wrap;connectable=0;strokeColor=inherit;overflow=hidden;fillColor=none;top=0;left=0;bottom=0;right=0;pointerEvents=1;fontSize=12;align=left;spacingLeft=5;" vertex="1" parent="Ntl6VfkrKiZV54SrpeyR-133">
          <mxGeometry width="40" height="15" as="geometry">
            <mxRectangle width="40" height="15" as="alternateBounds" />
          </mxGeometry>
        </mxCell>
        <mxCell id="Ntl6VfkrKiZV54SrpeyR-138" value="Payment method" style="shape=partialRectangle;html=1;whiteSpace=wrap;connectable=0;strokeColor=inherit;overflow=hidden;fillColor=none;top=0;left=0;bottom=0;right=0;pointerEvents=1;fontSize=12;align=left;spacingLeft=5;" vertex="1" parent="Ntl6VfkrKiZV54SrpeyR-133">
          <mxGeometry x="40" width="250" height="15" as="geometry">
            <mxRectangle width="250" height="15" as="alternateBounds" />
          </mxGeometry>
        </mxCell>
        <mxCell id="Ntl6VfkrKiZV54SrpeyR-131" value="" style="shape=tableRow;horizontal=0;startSize=0;swimlaneHead=0;swimlaneBody=0;strokeColor=inherit;top=0;left=0;bottom=0;right=0;collapsible=0;dropTarget=0;fillColor=none;points=[[0,0.5],[1,0.5]];portConstraint=eastwest;fontSize=16;" vertex="1" parent="Ntl6VfkrKiZV54SrpeyR-69">
          <mxGeometry y="670" width="290" height="15" as="geometry" />
        </mxCell>
        <mxCell id="Ntl6VfkrKiZV54SrpeyR-132" value="Item 2" style="shape=partialRectangle;html=1;whiteSpace=wrap;connectable=0;strokeColor=inherit;overflow=hidden;fillColor=none;top=0;left=0;bottom=0;right=0;pointerEvents=1;fontSize=12;align=left;spacingLeft=5;" vertex="1" parent="Ntl6VfkrKiZV54SrpeyR-131">
          <mxGeometry width="40" height="15" as="geometry">
            <mxRectangle width="40" height="15" as="alternateBounds" />
          </mxGeometry>
        </mxCell>
        <mxCell id="Ntl6VfkrKiZV54SrpeyR-139" value="Online Sales" style="shape=partialRectangle;html=1;whiteSpace=wrap;connectable=0;strokeColor=inherit;overflow=hidden;fillColor=none;top=0;left=0;bottom=0;right=0;pointerEvents=1;fontSize=12;align=left;spacingLeft=5;" vertex="1" parent="Ntl6VfkrKiZV54SrpeyR-131">
          <mxGeometry x="40" width="250" height="15" as="geometry">
            <mxRectangle width="250" height="15" as="alternateBounds" />
          </mxGeometry>
        </mxCell>
        <mxCell id="Ntl6VfkrKiZV54SrpeyR-129" value="" style="shape=tableRow;horizontal=0;startSize=0;swimlaneHead=0;swimlaneBody=0;strokeColor=inherit;top=0;left=0;bottom=0;right=0;collapsible=0;dropTarget=0;fillColor=none;points=[[0,0.5],[1,0.5]];portConstraint=eastwest;fontSize=16;" vertex="1" parent="Ntl6VfkrKiZV54SrpeyR-69">
          <mxGeometry y="685" width="290" height="15" as="geometry" />
        </mxCell>
        <mxCell id="Ntl6VfkrKiZV54SrpeyR-130" value="Item 1" style="shape=partialRectangle;html=1;whiteSpace=wrap;connectable=0;strokeColor=inherit;overflow=hidden;fillColor=none;top=0;left=0;bottom=0;right=0;pointerEvents=1;fontSize=12;align=left;spacingLeft=5;" vertex="1" parent="Ntl6VfkrKiZV54SrpeyR-129">
          <mxGeometry width="40" height="15" as="geometry">
            <mxRectangle width="40" height="15" as="alternateBounds" />
          </mxGeometry>
        </mxCell>
        <mxCell id="Ntl6VfkrKiZV54SrpeyR-140" value="In person Sales" style="shape=partialRectangle;html=1;whiteSpace=wrap;connectable=0;strokeColor=inherit;overflow=hidden;fillColor=none;top=0;left=0;bottom=0;right=0;pointerEvents=1;fontSize=12;align=left;spacingLeft=5;" vertex="1" parent="Ntl6VfkrKiZV54SrpeyR-129">
          <mxGeometry x="40" width="250" height="15" as="geometry">
            <mxRectangle width="250" height="15" as="alternateBounds" />
          </mxGeometry>
        </mxCell>
        <mxCell id="Ntl6VfkrKiZV54SrpeyR-135" style="shape=tableRow;horizontal=0;startSize=0;swimlaneHead=0;swimlaneBody=0;strokeColor=inherit;top=0;left=0;bottom=0;right=0;collapsible=0;dropTarget=0;fillColor=none;points=[[0,0.5],[1,0.5]];portConstraint=eastwest;fontSize=16;" vertex="1" parent="Ntl6VfkrKiZV54SrpeyR-69">
          <mxGeometry y="700" width="290" height="15" as="geometry" />
        </mxCell>
        <mxCell id="Ntl6VfkrKiZV54SrpeyR-136" value="Item 4" style="shape=partialRectangle;html=1;whiteSpace=wrap;connectable=0;strokeColor=inherit;overflow=hidden;fillColor=none;top=0;left=0;bottom=0;right=0;pointerEvents=1;fontSize=12;align=left;spacingLeft=5;" vertex="1" parent="Ntl6VfkrKiZV54SrpeyR-135">
          <mxGeometry width="40" height="15" as="geometry">
            <mxRectangle width="40" height="15" as="alternateBounds" />
          </mxGeometry>
        </mxCell>
        <mxCell id="Ntl6VfkrKiZV54SrpeyR-137" value="Leasing" style="shape=partialRectangle;html=1;whiteSpace=wrap;connectable=0;strokeColor=inherit;overflow=hidden;fillColor=none;top=0;left=0;bottom=0;right=0;pointerEvents=1;fontSize=12;align=left;spacingLeft=5;" vertex="1" parent="Ntl6VfkrKiZV54SrpeyR-135">
          <mxGeometry x="40" width="250" height="15" as="geometry">
            <mxRectangle width="250" height="15" as="alternateBounds" />
          </mxGeometry>
        </mxCell>
        <mxCell id="Ntl6VfkrKiZV54SrpeyR-97" value="" style="shape=tableRow;horizontal=0;startSize=0;swimlaneHead=0;swimlaneBody=0;top=0;left=0;bottom=0;right=0;collapsible=0;dropTarget=0;fillColor=none;points=[[0,0.5],[1,0.5]];portConstraint=eastwest;strokeColor=#909090;fontSize=16;rounded=0;labelBackgroundColor=none;fontColor=#1A1A1A;" vertex="1" parent="Ntl6VfkrKiZV54SrpeyR-69">
          <mxGeometry y="715" width="290" height="20" as="geometry" />
        </mxCell>
        <mxCell id="Ntl6VfkrKiZV54SrpeyR-98" value="" style="shape=partialRectangle;html=1;whiteSpace=wrap;connectable=0;fillColor=none;top=0;left=0;bottom=0;right=0;overflow=hidden;strokeColor=#909090;fontSize=16;rounded=0;labelBackgroundColor=none;fontColor=#1A1A1A;" vertex="1" parent="Ntl6VfkrKiZV54SrpeyR-97">
          <mxGeometry width="40" height="20" as="geometry">
            <mxRectangle width="40" height="20" as="alternateBounds" />
          </mxGeometry>
        </mxCell>
        <mxCell id="Ntl6VfkrKiZV54SrpeyR-99" value="" style="shape=partialRectangle;html=1;whiteSpace=wrap;connectable=0;fillColor=none;top=0;left=0;bottom=0;right=0;align=left;spacingLeft=6;overflow=hidden;strokeColor=#909090;fontSize=16;rounded=0;labelBackgroundColor=none;fontColor=#1A1A1A;" vertex="1" parent="Ntl6VfkrKiZV54SrpeyR-97">
          <mxGeometry x="40" width="250" height="20" as="geometry">
            <mxRectangle width="250" height="20" as="alternateBounds" />
          </mxGeometry>
        </mxCell>
      </root>
    </mxGraphModel>
  </diagram>
</mxfile>
